<svg width="790" height="218" viewBox="0 0 790 218" fill="none" xmlns="http://www.w3.org/2000/svg">
<path d="M0.4 0.599999C6.2 0.799996 13.8 0.999994 23.2 1.19999C32.8 1.39999 42.4 1.49999 52 1.49999C62 1.49999 71.6 1.39999 80.8 1.19999C90 0.999994 96.5 0.899995 100.3 0.899995C127.7 0.899995 148.1 5.29999 161.5 14.1C174.9 22.9 181.6 34.2 181.6 48C181.6 55 179.1 62.3 174.1 69.9C169.1 77.3 161.5 83.9 151.3 89.7C141.1 95.3 128.1 99.1 112.3 101.1V101.7C132.9 102.7 149.4 105.9 161.8 111.3C174.2 116.7 183.2 123.3 188.8 131.1C194.4 138.7 197.2 146.6 197.2 154.8C197.2 168.2 193.6 179.2 186.4 187.8C179.2 196.4 168.8 202.8 155.2 207C141.8 211 125.8 213 107.2 213C102.4 213 95.3 212.9 85.9 212.7C76.7 212.3 65.6 212.1 52.6 212.1C42.6 212.1 32.8 212.2 23.2 212.4C13.8 212.4 6.2 212.6 0.4 213V207C6.6 206.6 11.2 205.8 14.2 204.6C17.2 203.4 19.2 201 20.2 197.4C21.2 193.8 21.7 188.4 21.7 181.2V32.4C21.7 25 21.2 19.6 20.2 16.2C19.2 12.6 17.1 10.2 13.9 9C10.9 7.59999 6.4 6.79999 0.4 6.59999V0.599999ZM98.8 6.59999C92 6.59999 87.6 8.29999 85.6 11.7C83.6 15.1 82.6 22 82.6 32.4V181.2C82.6 188.2 83.1 193.5 84.1 197.1C85.1 200.7 87 203.1 89.8 204.3C92.6 205.5 96.7 206.1 102.1 206.1C113.3 206.1 121.4 201.6 126.4 192.6C131.6 183.4 134.2 170.4 134.2 153.6C134.2 138.2 130.5 126.3 123.1 117.9C115.9 109.5 103.8 105.3 86.8 105.3H64.9C64.9 105.3 64.9 104.5 64.9 102.9C64.9 101.1 64.9 100.2 64.9 100.2H90.7C98.5 100.2 104.5 98 108.7 93.6C112.9 89 115.8 83 117.4 75.6C119 68 119.8 59.9 119.8 51.3C119.8 36.5 118.2 25.4 115 18C111.8 10.4 106.4 6.59999 98.8 6.59999ZM319.03 53.1C326.23 53.1 331.83 54.7 335.83 57.9C339.83 60.9 342.63 64.8 344.23 69.6C345.83 74.2 346.63 78.8 346.63 83.4C346.63 92.4 344.03 99.6 338.83 105C333.83 110.2 327.23 112.8 319.03 112.8C310.23 112.8 303.53 110.8 298.93 106.8C294.53 102.8 292.33 97.6 292.33 91.2C292.33 84.4 293.73 78.8 296.53 74.4C299.53 70 303.23 66.3 307.63 63.3C304.03 63.3 300.83 64 298.03 65.4C295.63 66.4 293.33 67.8 291.13 69.6C288.93 71.4 287.03 73.5 285.43 75.9C283.83 78.1 282.53 80.6 281.53 83.4C280.73 86.2 280.33 89.1 280.33 92.1V182.1C280.33 191.7 282.33 198.2 286.33 201.6C290.33 205 296.93 206.7 306.13 206.7V213C301.53 212.8 294.63 212.6 285.43 212.4C276.43 212 267.13 211.8 257.53 211.8C248.53 211.8 239.43 212 230.23 212.4C221.03 212.6 214.13 212.8 209.53 213V206.7C215.73 206.7 220.03 205.2 222.43 202.2C225.03 199.2 226.33 193.5 226.33 185.1V90C226.33 81 225.13 74.4 222.73 70.2C220.33 65.8 215.93 63.6 209.53 63.6V57.3C215.93 57.9 222.13 58.2 228.13 58.2C238.13 58.2 247.43 57.9 256.03 57.3C264.83 56.5 272.93 55.4 280.33 54V75.6C282.93 70.4 286.13 66.2 289.93 63C293.73 59.6 298.03 57.1 302.83 55.5C307.83 53.9 313.23 53.1 319.03 53.1ZM431.134 53.1C448.734 53.1 462.534 58.3 472.534 68.7C482.734 78.9 487.834 96.1 487.834 120.3H393.934L393.334 114.6H444.034C444.234 104.8 443.834 95.8 442.834 87.6C441.834 79.2 440.234 72.5 438.034 67.5C435.834 62.5 432.834 60 429.034 60C423.634 60 419.234 64.3 415.834 72.9C412.434 81.3 410.234 95.8 409.234 116.4L410.434 118.8C410.234 120.8 410.134 122.8 410.134 124.8C410.134 126.8 410.134 128.9 410.134 131.1C410.134 145.1 411.834 156 415.234 163.8C418.834 171.6 423.234 177 428.434 180C433.834 183 439.234 184.5 444.634 184.5C447.434 184.5 450.734 184.1 454.534 183.3C458.534 182.5 462.834 180.7 467.434 177.9C472.034 174.9 476.534 170.4 480.934 164.4L486.034 166.2C483.634 174.2 479.734 182.2 474.334 190.2C469.134 198 462.334 204.5 453.934 209.7C445.534 214.7 435.334 217.2 423.334 217.2C410.534 217.2 398.834 214.6 388.234 209.4C377.834 204.2 369.534 195.6 363.334 183.6C357.134 171.6 354.034 155.5 354.034 135.3C354.034 116.1 357.434 100.5 364.234 88.5C371.034 76.3 380.234 67.4 391.834 61.8C403.634 56 416.734 53.1 431.134 53.1ZM580.612 57.3V63.6C576.412 63.6 572.812 63.9 569.812 64.5C567.012 64.9 565.112 65.9 564.112 67.5C563.112 69.1 563.012 71.6 563.812 75L590.512 164.1L585.412 171L614.512 57.6L620.812 60.9L580.912 213C576.112 212.6 571.212 212.4 566.212 212.4C561.412 212.4 556.612 212.6 551.812 213L505.612 80.4C502.812 72.4 499.712 67.6 496.312 66C493.112 64.4 490.412 63.6 488.212 63.6V57.3C496.212 57.9 504.512 58.4 513.112 58.8C521.712 59 531.212 59.1 541.612 59.1C547.812 59.1 554.312 58.9 561.112 58.5C568.112 58.1 574.612 57.7 580.612 57.3ZM731.812 57.3V63.6C728.012 65 724.312 67.7 720.712 71.7C717.112 75.7 713.712 82.7 710.512 92.7L673.012 213C668.212 212.6 663.312 212.4 658.312 212.4C653.512 212.4 648.712 212.6 643.912 213L605.812 102.3L614.812 57.6C620.012 58 625.312 58.2 630.712 58.2C636.112 58 641.412 57.8 646.612 57.6L683.812 177L679.912 170.4L693.712 124.5C697.912 110.7 699.512 99.5 698.512 90.9C697.512 82.1 694.812 75.5 690.412 71.1C686.012 66.7 680.612 64.2 674.212 63.6V57.3C677.012 57.5 680.612 57.7 685.012 57.9C689.612 58.1 694.112 58.3 698.512 58.5C702.912 58.5 706.312 58.5 708.712 58.5C712.312 58.5 716.512 58.4 721.312 58.2C726.112 58 729.612 57.7 731.812 57.3ZM759.984 165.6C769.384 165.6 776.684 167.8 781.884 172.2C787.084 176.4 789.684 182.8 789.684 191.4C789.684 200 787.084 206.5 781.884 210.9C776.684 215.1 769.384 217.2 759.984 217.2C750.384 217.2 742.984 215.1 737.784 210.9C732.784 206.5 730.284 200 730.284 191.4C730.284 182.8 732.784 176.4 737.784 172.2C742.984 167.8 750.384 165.6 759.984 165.6Z" fill="white" style="fill:white;fill-opacity:1;"/>
</svg>
